# xmcd
#
# Track frame offsets:
#	150
#	8522
#	17375
#
# Disc length: 322 seconds
#
# Revision: 1
# Processed by: cddbd v1.5.1PL0 Copyright (c) Steve Scherf et al.
# Submitted via: CDex 1.50Beta5
#
DISCID=0d014003
DTITLE=Under17 - SUKUMIZU SHORT Songs
DYEAR=1900
DGENRE=Game
TTITLE0=ツルピトな恋
TTITLE1=泳・げ・な・い
TTITLE2=夏だ！海だ！スク水だ！
EXTD=
EXTT0=
EXTT1=
EXTT2=
PLAYORDER=
